<svg xmlns="http://www.w3.org/2000/svg" width="35" height="35" viewBox="0 0 35 35">
  <g id="CLEARALLALERTS" transform="translate(-1435 -152)">
    <circle id="Ellipse_15" data-name="Ellipse 15" cx="17.5" cy="17.5" r="17.5" transform="translate(1435 152)" fill="#2c2f3e"/>
    <g id="iconfinder_25_2135797" transform="translate(1378.472 154.308)">
      <path id="Path_5036" data-name="Path 5036" d="M89.4,100l1.049,13.929a2.5,2.5,0,0,0,2.43,2.326h6.378a2.5,2.5,0,0,0,2.43-2.326L102.74,100Zm4.032,14.445a.479.479,0,0,1-.48.508.537.537,0,0,1-.524-.508l-.585-11.875a.612.612,0,0,1,.553-.7.68.68,0,0,1,.613.7Zm3.139,0a.5.5,0,1,1-1,0l-.08-11.875a.59.59,0,1,1,1.161,0Zm3.139,0a.531.531,0,0,1-.524.508.484.484,0,0,1-.48-.508l.424-11.875a.677.677,0,0,1,.613-.7.612.612,0,0,1,.553.7Z" transform="translate(-21.957 -90.237)" fill="#999aa3"/>
      <path id="XMLID_2_" d="M81.692,45.937H66.535A1.285,1.285,0,0,1,67.652,44.4H80.579a1.287,1.287,0,0,1,1.113,1.537Z" transform="translate(0 -36.863)" fill="#999aa3"/>
      <path id="XMLID_1_" d="M192.948,8.106h-5.469l-.008-.312A1.589,1.589,0,0,1,188.849,6h2.735a1.592,1.592,0,0,1,1.377,1.79Z" transform="translate(-116.1 0)" fill="#999aa3"/>
    </g>
  </g>
</svg>
